%TF.GenerationSoftware,KiCad,Pcbnew,7.0.10-7.0.10~ubuntu22.04.1*%
%TF.CreationDate,2024-07-15T15:34:11-04:00*%
%TF.ProjectId,IcePSMNR55,49636550-534d-44e5-9235-352e6b696361,rev?*%
%TF.SameCoordinates,Original*%
%TF.FileFunction,Legend,Bot*%
%TF.FilePolarity,Positive*%
%FSLAX46Y46*%
G04 Gerber Fmt 4.6, Leading zero omitted, Abs format (unit mm)*
G04 Created by KiCad (PCBNEW 7.0.10-7.0.10~ubuntu22.04.1) date 2024-07-15 15:34:11*
%MOMM*%
%LPD*%
G01*
G04 APERTURE LIST*
%ADD10C,2.004000*%
%ADD11C,3.200000*%
G04 APERTURE END LIST*
%LPC*%
D10*
%TO.C,M4*%
X101600000Y-45720000D03*
X104140000Y-45720000D03*
X106680000Y-45720000D03*
X109220000Y-45720000D03*
X111760000Y-45720000D03*
X114300000Y-45720000D03*
X114300000Y-48260000D03*
X111760000Y-48260000D03*
X109220000Y-48260000D03*
X106680000Y-48260000D03*
X104140000Y-48260000D03*
X101600000Y-48260000D03*
X101600000Y-50800000D03*
X104140000Y-50800000D03*
X106680000Y-50800000D03*
X109220000Y-50800000D03*
X111760000Y-50800000D03*
X114300000Y-50800000D03*
X114300000Y-53340000D03*
X111760000Y-53340000D03*
X109220000Y-53340000D03*
X106680000Y-53340000D03*
X104140000Y-53340000D03*
X101600000Y-53340000D03*
X101600000Y-55880000D03*
X104140000Y-55880000D03*
X106680000Y-55880000D03*
X109220000Y-55880000D03*
X111760000Y-55880000D03*
X114300000Y-55880000D03*
X114300000Y-58420000D03*
X111760000Y-58420000D03*
X109220000Y-58420000D03*
X106680000Y-58420000D03*
X104140000Y-58420000D03*
X101600000Y-58420000D03*
%TD*%
D11*
%TO.C,H1*%
X57785000Y-102870000D03*
%TD*%
D10*
%TO.C,M3*%
X101600000Y-82550000D03*
X104140000Y-82550000D03*
X106680000Y-82550000D03*
X109220000Y-82550000D03*
X111760000Y-82550000D03*
X114300000Y-82550000D03*
X114300000Y-85090000D03*
X111760000Y-85090000D03*
X109220000Y-85090000D03*
X106680000Y-85090000D03*
X104140000Y-85090000D03*
X101600000Y-85090000D03*
X101600000Y-87630000D03*
X104140000Y-87630000D03*
X106680000Y-87630000D03*
X109220000Y-87630000D03*
X111760000Y-87630000D03*
X114300000Y-87630000D03*
X114300000Y-90170000D03*
X111760000Y-90170000D03*
X109220000Y-90170000D03*
X106680000Y-90170000D03*
X104140000Y-90170000D03*
X101600000Y-90170000D03*
X101600000Y-92710000D03*
X104140000Y-92710000D03*
X106680000Y-92710000D03*
X109220000Y-92710000D03*
X111760000Y-92710000D03*
X114300000Y-92710000D03*
X114300000Y-95250000D03*
X111760000Y-95250000D03*
X109220000Y-95250000D03*
X106680000Y-95250000D03*
X104140000Y-95250000D03*
X101600000Y-95250000D03*
%TD*%
D11*
%TO.C,H2*%
X57785000Y-38100000D03*
%TD*%
%TO.C,H4*%
X113030000Y-102870000D03*
%TD*%
D10*
%TO.C,M1*%
X39370000Y-38100000D03*
X41910000Y-38100000D03*
X44450000Y-38100000D03*
X46990000Y-38100000D03*
X49530000Y-38100000D03*
X52070000Y-38100000D03*
X52070000Y-40640000D03*
X49530000Y-40640000D03*
X46990000Y-40640000D03*
X44450000Y-40640000D03*
X41910000Y-40640000D03*
X39370000Y-40640000D03*
X39370000Y-43180000D03*
X41910000Y-43180000D03*
X44450000Y-43180000D03*
X46990000Y-43180000D03*
X49530000Y-43180000D03*
X52070000Y-43180000D03*
X52070000Y-45720000D03*
X49530000Y-45720000D03*
X46990000Y-45720000D03*
X44450000Y-45720000D03*
X41910000Y-45720000D03*
X39370000Y-45720000D03*
X39370000Y-48260000D03*
X41910000Y-48260000D03*
X44450000Y-48260000D03*
X46990000Y-48260000D03*
X49530000Y-48260000D03*
X52070000Y-48260000D03*
X52070000Y-50800000D03*
X49530000Y-50800000D03*
X46990000Y-50800000D03*
X44450000Y-50800000D03*
X41910000Y-50800000D03*
X39370000Y-50800000D03*
%TD*%
D11*
%TO.C,H3*%
X113030000Y-38100000D03*
%TD*%
D10*
%TO.C,M2*%
X39390000Y-90170000D03*
X41930000Y-90170000D03*
X44470000Y-90170000D03*
X47010000Y-90170000D03*
X49550000Y-90170000D03*
X52090000Y-90170000D03*
X52090000Y-92710000D03*
X49550000Y-92710000D03*
X47010000Y-92710000D03*
X44470000Y-92710000D03*
X41930000Y-92710000D03*
X39390000Y-92710000D03*
X39390000Y-95250000D03*
X41930000Y-95250000D03*
X44470000Y-95250000D03*
X47010000Y-95250000D03*
X49550000Y-95250000D03*
X52090000Y-95250000D03*
X52090000Y-97790000D03*
X49550000Y-97790000D03*
X47010000Y-97790000D03*
X44470000Y-97790000D03*
X41930000Y-97790000D03*
X39390000Y-97790000D03*
X39390000Y-100330000D03*
X41930000Y-100330000D03*
X44470000Y-100330000D03*
X47010000Y-100330000D03*
X49550000Y-100330000D03*
X52090000Y-100330000D03*
X52090000Y-102870000D03*
X49550000Y-102870000D03*
X47010000Y-102870000D03*
X44470000Y-102870000D03*
X41930000Y-102870000D03*
X39390000Y-102870000D03*
%TD*%
%LPD*%
M02*
