M48
INCH
T1C0.0118
T2C0.0157
T3C0.0581
%
G90
G05
T1
X1.4539Y-2.1134
X1.4634Y-2.1736
X1.4646Y-2.3319
X1.4748Y-2.8012
X1.4803Y-2.6854
X1.495Y-3.06
X1.5268Y-2.1228
X1.5433Y-3.4016
X1.6516Y-2.65
X1.6516Y-3.15
X1.652Y-3.052
X1.661Y-2.1343
X1.6969Y-3.365
X1.7083Y-2.5846
X1.7122Y-2.711
X1.7236Y-2.3063
X1.74Y-3.04
X1.75Y-3.2
X1.7531Y-2.387
X1.798Y-2.8969
X1.8185Y-2.1413
X1.85Y-2.45
X1.85Y-2.75
X1.85Y-3.05
X1.852Y-3.25
X1.8622Y-3.1488
X1.915Y-2.128
X1.9413Y-3.4024
X1.95Y-2.28
X1.955Y-3.305
X1.96Y-2.72
X1.985Y-3.065
X1.998Y-2.656
X2.01Y-2.84
X2.02Y-2.49
X2.0272Y-2.163
X2.03Y-3.11
X2.0391Y-2.7425
X2.0508Y-2.2492
X2.0988Y-2.3874
X2.0988Y-2.4524
X2.1Y-3.23
X2.1028Y-3.0177
X2.104Y-2.728
X2.11Y-2.26
X2.15Y-2.84
X2.15Y-3.344
X2.1559Y-2.5083
X2.158Y-2.596
X2.1669Y-3.8591
X2.1697Y-2.0146
X2.1811Y-1.3701
X2.184Y-3.044
X2.189Y-1.6535
X2.189Y-1.9209
X2.19Y-2.24
X2.1969Y-1.7244
X2.1969Y-1.8031
X2.1969Y-4.1181
X2.2Y-2.18
X2.2094Y-3.5866
X2.2108Y-2.3024
X2.211Y-3.664
X2.2205Y-3.9055
X2.225Y-2.925
X2.2283Y-1.5984
X2.23Y-2.15
X2.23Y-2.6697
X2.2303Y-3.3472
X2.2378Y-2.1024
X2.2441Y-1.3937
X2.245Y-3.068
X2.246Y-2.85
X2.252Y-1.7559
X2.252Y-1.8504
X2.2555Y-1.9165
X2.2679Y-2.9274
X2.2828Y-2.3024
X2.284Y-2.5974
X2.2933Y-3.8445
X2.298Y-2.812
X2.309Y-3.129
X2.31Y-2.505
X2.31Y-2.975
X2.3122Y-1.6917
X2.3127Y-3.5707
X2.3293Y-2.3724
X2.354Y-2.2
X2.354Y-3.766
X2.3629Y-2.3224
X2.37Y-2.41
X2.3701Y-2.0394
X2.3723Y-2.812
X2.3727Y-2.6638
X2.3784Y-2.1264
X2.3788Y-1.9792
X2.39Y-2.61
X2.4Y-3.574
X2.401Y-3.325
X2.405Y-2.505
X2.4173Y-1.6693
X2.4173Y-4.1575
X2.4295Y-1.8764
X2.43Y-1.93
X2.444Y-3.874
X2.445Y-2.865
X2.45Y-3.465
X2.4515Y-2.7026
X2.4571Y-1.4823
X2.458Y-3.701
X2.46Y-3.788
X2.469Y-3.087
X2.4748Y-2.1614
X2.4752Y-2.278
X2.478Y-2.3264
X2.4787Y-2.2276
X2.48Y-2.04
X2.48Y-2.5
X2.4906Y-3.58
X2.4999Y-2.8876
X2.5Y-2.6574
X2.5067Y-1.9315
X2.5075Y-4.0803
X2.5079Y-1.6563
X2.5109Y-2.5491
X2.513Y-3.3122
X2.52Y-1.835
X2.5218Y-2.5974
X2.5232Y-2.324
X2.525Y-3.9425
X2.5268Y-2.1594
X2.5268Y-2.224
X2.528Y-2.2815
X2.53Y-2.04
X2.54Y-2.77
X2.54Y-2.82
X2.543Y-2.503
X2.5512Y-1.7165
X2.555Y-2.71
X2.5575Y-4.052
X2.562Y-3.592
X2.562Y-3.828
X2.5681Y-2.0965
X2.5683Y-2.05
X2.5764Y-4.1535
X2.5772Y-2.3181
X2.5823Y-2.2709
X2.5827Y-4.1102
X2.585Y-3.16
X2.585Y-3.25
X2.5866Y-2.2236
X2.588Y-3.556
X2.5949Y-2.5397
X2.5969Y-1.8638
X2.5984Y-2.1559
X2.6031Y-3.0882
X2.62Y-2.57
X2.62Y-2.62
X2.6213Y-2.694
X2.6279Y-2.8499
X2.6289Y-2.0382
X2.6299Y-1.5984
X2.6336Y-3.0244
X2.6457Y-1.6772
X2.646Y-3.584
X2.65Y-3.33
X2.6535Y-1.7717
X2.656Y-3.752
X2.656Y-4.04
X2.6567Y-2.2976
X2.6598Y-2.1571
X2.6598Y-2.2185
X2.66Y-2.7105
X2.6602Y-2.7702
X2.664Y-2.619
X2.677Y-3.694
X2.6798Y-2.9102
X2.6862Y-2.5026
X2.688Y-3.584
X2.7006Y-1.6063
X2.702Y-3.672
X2.704Y-2.7797
X2.705Y-2.829
X2.7054Y-2.9274
X2.7071Y-3.9
X2.7071Y-4.0398
X2.7165Y-2.7106
X2.72Y-3.37
X2.722Y-2.552
X2.7245Y-4.1651
X2.73Y-2.8774
X2.73Y-3.0126
X2.73Y-3.16
X2.7303Y-2.0697
X2.7344Y-3.7102
X2.736Y-2.2106
X2.7374Y-1.8213
X2.74Y-1.685
X2.7402Y-2.61
X2.7406Y-2.2807
X2.7414Y-2.1835
X2.7421Y-3.0651
X2.7556Y-2.825
X2.757Y-2.915
X2.7611Y-2.7641
X2.762Y-3.018
X2.7624Y-2.1219
X2.77Y-2.632
X2.7734Y-2.701
X2.774Y-2.7398
X2.775Y-1.585
X2.7867Y-2.8966
X2.79Y-2.56
X2.795Y-2.175
X2.7953Y-4.0945
X2.8004Y-2.2736
X2.8055Y-3.6004
X2.806Y-2.246
X2.816Y-1.656
X2.818Y-2.8973
X2.82Y-2.935
X2.82Y-3.03
X2.8283Y-2.5441
X2.8432Y-2.3873
X2.85Y-2.4445
X2.8504Y-2.0236
X2.8539Y-3.6016
X2.857Y-2.216
X2.8583Y-4.0079
X2.8614Y-4.1567
X2.8728Y-2.7252
X2.8752Y-2.6677
X2.8756Y-2.7764
X2.881Y-1.781
X2.885Y-2.5122
X2.8885Y-2.95
X2.89Y-2.11
X2.89Y-2.56
X2.89Y-3.02
X2.8972Y-2.8528
X2.898Y-3.78
X2.9Y-2.99
X2.9Y-3.198
X2.9106Y-3.7261
X2.9175Y-2.26
X2.918Y-2.43
X2.9283Y-2.7228
X2.9283Y-2.7768
X2.9311Y-2.6677
X2.9504Y-2.0409
X2.9504Y-3.6512
X2.952Y-3.834
X2.954Y-2.9234
X2.9586Y-3.1366
X2.9607Y-3.5659
X2.9669Y-4.0157
X2.9685Y-4.1496
X2.97Y-2.44
X2.9748Y-2.5252
X2.9772Y-2.58
X2.9827Y-2.7764
X2.985Y-2.8524
X2.986Y-2.335
X2.987Y-2.7224
X2.988Y-2.952
X2.99Y-1.785
X2.9933Y-2.6677
X2.9969Y-1.3913
X2.9969Y-3.3803
X3.0Y-3.728
X3.002Y-2.562
X3.002Y-3.266
X3.0157Y-1.622
X3.026Y-3.532
X3.0291Y-2.85
X3.03Y-2.5837
X3.03Y-2.979
X3.0343Y-1.479
X3.0406Y-2.6677
X3.0409Y-2.7213
X3.048Y-3.71
X3.05Y-3.135
X3.055Y-2.365
X3.0626Y-3.8
X3.0642Y-3.0488
X3.068Y-2.948
X3.07Y-3.564
X3.0807Y-4.1315
X3.0835Y-2.8742
X3.0882Y-3.326
X3.1Y-3.174
X3.1Y-3.95
X3.105Y-2.979
X3.11Y-2.43
X3.111Y-1.7244
X3.13Y-2.485
X3.145Y-3.115
X3.1496Y-4.0472
X3.1499Y-2.6923
X3.165Y-3.3571
X3.167Y-2.783
X3.1732Y-3.7508
X3.1902Y-2.975
X3.1938Y-2.0008
X3.2Y-2.7
X3.202Y-2.736
X3.2031Y-2.8913
X3.2138Y-1.9608
X3.215Y-3.055
X3.2157Y-4.0902
X3.2189Y-1.7524
X3.2197Y-2.8406
X3.2283Y-1.4724
X3.2283Y-1.685
X3.2338Y-2.0008
X3.2362Y-3.7953
X3.247Y-2.697
X3.2476Y-2.9772
X3.25Y-2.23
X3.25Y-3.4449
X3.25Y-4.01
X3.2538Y-1.9608
X3.2567Y-3.2764
X3.258Y-3.688
X3.2602Y-1.585
X3.2738Y-2.0008
X3.276Y-3.144
X3.2776Y-3.3366
X3.2787Y-3.5283
X3.2933Y-2.4354
X3.2938Y-1.9608
X3.2957Y-3.1098
X3.304Y-2.601
X3.3138Y-2.0008
X3.315Y-4.1654
X3.3201Y-2.975
X3.3232Y-2.8319
X3.326Y-3.5909
X3.33Y-3.108
X3.35Y-2.522
X3.3646Y-3.2803
X3.3669Y-3.4248
X3.374Y-1.6161
X3.374Y-1.6561
X3.374Y-1.6961
X3.3742Y-4.0032
X3.3823Y-3.6933
X3.3909Y-3.2669
X3.3945Y-3.3276
X3.4Y-3.2
X3.41Y-2.385
X3.4114Y-2.0563
X3.414Y-1.5961
X3.414Y-1.6361
X3.414Y-1.6761
X3.414Y-1.7161
X3.4388Y-2.81
X3.4602Y-2.4386
X3.4717Y-2.8567
X3.4724Y-3.748
X3.4756Y-3.2657
X3.4772Y-3.385
X3.4817Y-2.362
X3.4902Y-4.0299
X3.4996Y-3.6673
X3.5017Y-2.402
X3.504Y-3.498
X3.52Y-1.53
X3.52Y-1.57
X3.52Y-1.61
X3.52Y-1.65
X3.52Y-1.69
X3.52Y-1.73
X3.52Y-1.77
X3.52Y-2.02
X3.52Y-2.06
X3.52Y-2.1
X3.52Y-2.14
X3.52Y-2.18
X3.52Y-2.22
X3.52Y-2.26
X3.5217Y-2.362
X3.524Y-2.921
X3.5334Y-2.8511
X3.5362Y-3.3492
X3.5372Y-2.661
X3.5417Y-2.402
X3.546Y-3.1936
X3.56Y-1.55
X3.56Y-1.59
X3.56Y-1.63
X3.56Y-1.67
X3.56Y-1.71
X3.56Y-1.75
X3.56Y-2.04
X3.56Y-2.08
X3.56Y-2.12
X3.56Y-2.16
X3.56Y-2.2
X3.56Y-2.24
X3.5617Y-2.362
X3.562Y-3.456
X3.5817Y-2.402
X3.6Y-1.53
X3.6Y-1.57
X3.6Y-1.61
X3.6Y-1.65
X3.6Y-1.69
X3.6Y-1.73
X3.6Y-1.77
X3.6Y-2.02
X3.6Y-2.06
X3.6Y-2.1
X3.6Y-2.14
X3.6Y-2.18
X3.6Y-2.22
X3.6Y-2.26
X3.6017Y-2.362
X3.605Y-2.81
X3.64Y-1.55
X3.64Y-1.59
X3.64Y-1.63
X3.64Y-1.67
X3.64Y-1.71
X3.64Y-1.75
X3.64Y-2.04
X3.64Y-2.08
X3.64Y-2.12
X3.64Y-2.16
X3.64Y-2.2
X3.64Y-2.24
X3.645Y-3.5
X3.65Y-3.33
X3.6546Y-2.92
X3.655Y-3.04
X3.655Y-3.1693
X3.6661Y-3.7307
X3.6713Y-4.0323
X3.675Y-3.615
X3.675Y-3.87
X3.6902Y-4.1512
X3.695Y-3.455
X3.6972Y-2.3827
X3.7317Y-3.9157
X3.735Y-2.74
X3.7378Y-3.2045
X3.7378Y-3.2445
X3.7378Y-3.2845
X3.7378Y-3.3245
X3.7378Y-3.3645
X3.7378Y-3.4045
X3.7378Y-3.573
X3.7378Y-3.613
X3.7378Y-3.653
X3.7378Y-3.693
X3.7378Y-3.733
X3.7378Y-3.773
X3.745Y-2.8305
X3.75Y-3.005
X3.7517Y-3.9557
X3.7543Y-4.0705
X3.7689Y-2.3941
X3.7717Y-3.9157
X3.775Y-2.94
X3.7778Y-3.1845
X3.7778Y-3.2245
X3.7778Y-3.2645
X3.7778Y-3.3045
X3.7778Y-3.3445
X3.7778Y-3.3845
X3.7778Y-3.4245
X3.7778Y-3.553
X3.7778Y-3.593
X3.7778Y-3.633
X3.7778Y-3.673
X3.7778Y-3.713
X3.7778Y-3.753
X3.7778Y-3.793
X3.79Y-1.61
X3.79Y-1.69
X3.79Y-1.77
X3.79Y-2.1
X3.79Y-2.18
X3.79Y-2.26
X3.7917Y-3.9557
X3.81Y-2.49
X3.8117Y-3.9157
X3.8173Y-4.1524
X3.82Y-3.495
X3.8248Y-3.0925
X3.825Y-2.7
X3.825Y-2.78
X3.83Y-1.61
X3.83Y-1.69
X3.83Y-1.77
X3.83Y-2.1
X3.83Y-2.18
X3.83Y-2.26
X3.8317Y-3.9557
X3.835Y-3.85
X3.84Y-2.44
X3.8413Y-3.311
X3.85Y-2.66
X3.85Y-2.74
X3.85Y-2.82
X3.8517Y-3.9157
X3.865Y-2.7
X3.865Y-2.78
X3.865Y-4.015
X3.8654Y-3.6843
X3.87Y-2.49
X3.87Y-2.855
X3.87Y-3.41
X3.8717Y-3.9557
X3.8787Y-3.1421
X3.89Y-1.53
X3.89Y-1.6
X3.89Y-1.66
X3.89Y-1.72
X3.89Y-1.78
X3.89Y-1.84
X3.89Y-1.9
X3.89Y-1.96
X3.89Y-2.02
X3.89Y-2.08
X3.89Y-2.14
X3.89Y-2.2
X3.89Y-2.26
X3.89Y-2.32
X3.89Y-2.38
X3.89Y-2.66
X3.89Y-2.74
X3.89Y-2.82
X3.8917Y-3.9157
X3.8925Y-3.0402
X3.9Y-2.44
X3.9117Y-3.9557
X3.9125Y-3.0002
X3.93Y-2.49
X3.9317Y-3.9157
X3.9325Y-3.0402
X3.94Y-1.5
X3.94Y-1.56
X3.94Y-1.62
X3.94Y-1.68
X3.9517Y-3.9557
X3.9525Y-3.0002
X3.96Y-2.44
X3.9717Y-3.9157
X3.9725Y-3.0402
X3.975Y-2.645
X3.975Y-2.74
X3.975Y-2.855
X3.99Y-1.46
X3.99Y-1.52
X3.99Y-1.58
X3.99Y-1.64
X3.99Y-2.49
X3.9925Y-3.0002
X3.9976Y-4.0539
X4.005Y-2.905
X4.0125Y-3.0402
X4.015Y-2.685
X4.015Y-2.795
X4.02Y-2.44
X4.0301Y-3.9157
X4.0325Y-3.0002
X4.0331Y-3.1094
X4.05Y-1.5
X4.05Y-1.56
X4.05Y-1.62
X4.05Y-1.68
X4.05Y-2.49
X4.0501Y-3.9557
X4.0525Y-3.0402
X4.055Y-2.855
X4.0575Y-1.4268
X4.06Y-2.74
X4.0701Y-3.9157
X4.0725Y-3.0002
X4.075Y-2.685
X4.075Y-2.795
X4.075Y-2.905
X4.08Y-2.44
X4.08Y-4.115
X4.0901Y-3.9557
X4.0925Y-3.0402
X4.11Y-2.49
X4.1101Y-3.9157
X4.1125Y-3.0002
X4.115Y-2.855
X4.1185Y-1.524
X4.12Y-2.74
X4.1301Y-3.9557
X4.1325Y-3.0402
X4.135Y-2.905
X4.14Y-2.44
X4.1409Y-1.6311
X4.145Y-2.685
X4.145Y-2.795
X4.1461Y-4.0913
X4.1501Y-3.9157
X4.1669Y-3.1228
X4.17Y-2.49
X4.1701Y-3.9557
X4.1831Y-4.0508
X4.185Y-2.855
X4.19Y-2.74
X4.1901Y-3.9157
X4.1917Y-1.4343
X4.2Y-2.44
X4.205Y-2.685
X4.205Y-2.795
X4.205Y-2.905
X4.2101Y-3.9557
X4.2142Y-3.0551
X4.23Y-2.49
X4.2301Y-3.9157
X4.2409Y-1.5508
X4.245Y-2.855
X4.25Y-2.74
X4.2501Y-3.9557
X4.26Y-2.44
X4.2701Y-3.9157
X4.28Y-2.905
X4.285Y-2.68
X4.285Y-2.79
X4.285Y-2.945
X4.29Y-2.49
X4.3Y-3.03
X4.311Y-1.6461
X4.32Y-2.44
X4.3207Y-3.0
X4.325Y-2.85
X4.3272Y-3.8819
X4.33Y-2.735
X4.3393Y-3.03
X4.34Y-2.905
X4.345Y-2.68
X4.345Y-2.79
X4.35Y-2.49
X4.36Y-3.0
X4.375Y-2.57
X4.375Y-2.61
X4.38Y-2.44
X4.38Y-3.03
X4.385Y-2.85
X4.39Y-2.735
X4.3937Y-3.1303
X4.4007Y-3.0
X4.41Y-2.49
X4.41Y-2.905
X4.415Y-2.68
X4.415Y-2.79
X4.4193Y-3.03
X4.44Y-2.44
X4.44Y-3.0
X4.455Y-2.57
X4.455Y-2.61
X4.455Y-2.85
X4.46Y-2.735
X4.46Y-3.03
X4.47Y-2.49
X4.47Y-2.905
X4.475Y-2.68
X4.475Y-2.79
X4.4807Y-3.0
X4.5Y-2.44
X4.515Y-2.85
X4.52Y-2.735
X4.53Y-2.49
X4.535Y-2.57
X4.535Y-2.61
X4.545Y-2.93
X4.56Y-2.44
X4.5657Y-3.0961
X4.59Y-2.49
X4.595Y-2.81
X4.5992Y-1.6252
X4.6Y-2.915
X4.6004Y-2.252
X4.602Y-1.3941
X4.6059Y-3.8913
X4.6142Y-1.9417
X4.615Y-2.715
T2
X3.7726Y-2.675
X3.871Y-2.8981
T3
X1.55Y-1.5
X1.55Y-1.6
X1.55Y-1.7
X1.55Y-1.8
X1.55Y-1.9
X1.55Y-2.0
X1.5508Y-3.55
X1.5508Y-3.65
X1.5508Y-3.75
X1.5508Y-3.85
X1.5508Y-3.95
X1.5508Y-4.05
X1.65Y-1.5
X1.65Y-1.6
X1.65Y-1.7
X1.65Y-1.8
X1.65Y-1.9
X1.65Y-2.0
X1.6508Y-3.55
X1.6508Y-3.65
X1.6508Y-3.75
X1.6508Y-3.85
X1.6508Y-3.95
X1.6508Y-4.05
X1.75Y-1.5
X1.75Y-1.6
X1.75Y-1.7
X1.75Y-1.8
X1.75Y-1.9
X1.75Y-2.0
X1.7508Y-3.55
X1.7508Y-3.65
X1.7508Y-3.75
X1.7508Y-3.85
X1.7508Y-3.95
X1.7508Y-4.05
X1.85Y-1.5
X1.85Y-1.6
X1.85Y-1.7
X1.85Y-1.8
X1.85Y-1.9
X1.85Y-2.0
X1.8508Y-3.55
X1.8508Y-3.65
X1.8508Y-3.75
X1.8508Y-3.85
X1.8508Y-3.95
X1.8508Y-4.05
X1.95Y-1.5
X1.95Y-1.6
X1.95Y-1.7
X1.95Y-1.8
X1.95Y-1.9
X1.95Y-2.0
X1.9508Y-3.55
X1.9508Y-3.65
X1.9508Y-3.75
X1.9508Y-3.85
X1.9508Y-3.95
X1.9508Y-4.05
X2.05Y-1.5
X2.05Y-1.6
X2.05Y-1.7
X2.05Y-1.8
X2.05Y-1.9
X2.05Y-2.0
X2.0508Y-3.55
X2.0508Y-3.65
X2.0508Y-3.75
X2.0508Y-3.85
X2.0508Y-3.95
X2.0508Y-4.05
X4.0Y-1.8
X4.0Y-1.9
X4.0Y-2.0
X4.0Y-2.1
X4.0Y-2.2
X4.0Y-2.3
X4.0Y-3.25
X4.0Y-3.35
X4.0Y-3.45
X4.0Y-3.55
X4.0Y-3.65
X4.0Y-3.75
X4.1Y-1.8
X4.1Y-1.9
X4.1Y-2.0
X4.1Y-2.1
X4.1Y-2.2
X4.1Y-2.3
X4.1Y-3.25
X4.1Y-3.35
X4.1Y-3.45
X4.1Y-3.55
X4.1Y-3.65
X4.1Y-3.75
X4.2Y-1.8
X4.2Y-1.9
X4.2Y-2.0
X4.2Y-2.1
X4.2Y-2.2
X4.2Y-2.3
X4.2Y-3.25
X4.2Y-3.35
X4.2Y-3.45
X4.2Y-3.55
X4.2Y-3.65
X4.2Y-3.75
X4.3Y-1.8
X4.3Y-1.9
X4.3Y-2.0
X4.3Y-2.1
X4.3Y-2.2
X4.3Y-2.3
X4.3Y-3.25
X4.3Y-3.35
X4.3Y-3.45
X4.3Y-3.55
X4.3Y-3.65
X4.3Y-3.75
X4.4Y-1.8
X4.4Y-1.9
X4.4Y-2.0
X4.4Y-2.1
X4.4Y-2.2
X4.4Y-2.3
X4.4Y-3.25
X4.4Y-3.35
X4.4Y-3.45
X4.4Y-3.55
X4.4Y-3.65
X4.4Y-3.75
X4.5Y-1.8
X4.5Y-1.9
X4.5Y-2.0
X4.5Y-2.1
X4.5Y-2.2
X4.5Y-2.3
X4.5Y-3.25
X4.5Y-3.35
X4.5Y-3.45
X4.5Y-3.55
X4.5Y-3.65
X4.5Y-3.75
M30
